<?xml version="1.0" encoding="UTF-8"?>
<svg width="24px" height="24px" viewBox="0 0 24 24" version="1.1" xmlns="http://www.w3.org/2000/svg" xmlns:xlink="http://www.w3.org/1999/xlink">
    <!-- Generator: Sketch 57.1 (83088) - https://sketch.com -->
    <title>Icon/Dribbble</title>
    <desc>Created with Sketch.</desc>
    <g id="Icon/Dribbble" stroke="none" stroke-width="1" fill="none" fill-rule="evenodd">
        <path d="M12,1 C18.0751322,1 23,5.92486775 23,12 C23,18.0751322 18.0751322,23 12,23 C5.92486775,23 1,18.0751322 1,12 C1,5.92486775 5.92486775,1 12,1 Z M13.9132589,13.6067491 L13.7588078,13.66096 C11.1568862,14.6038084 8.68498461,16.5738445 6.3248374,19.5867398 C7.90620974,20.7737057 9.87111919,21.4757506 12,21.4757506 C13.2670529,21.4757506 14.4760221,21.2270644 15.5807601,20.7758393 C15.3169075,18.2839143 14.7613211,15.8945997 13.9132589,13.6067491 Z M21.3286131,13.6692353 C19.274989,12.9907076 17.2972145,12.8350022 15.388514,13.2079325 C16.1897455,15.3935843 16.736305,17.6684203 17.0297161,20.0309759 C19.1993846,18.6706268 20.7784192,16.4542472 21.2942798,13.85491 Z M12.4869454,10.376697 L12.1668598,10.4841032 C9.46053052,11.3567861 6.24741161,11.713237 2.53593773,11.5580393 C2.52765886,11.7040808 2.52424942,11.8516422 2.52424942,12 C2.52424942,14.5549994 3.53546506,16.8738168 5.1795107,18.5780664 C7.72616132,15.3483657 10.4534951,13.2143 13.3440305,12.1901781 C13.0809183,11.5783241 12.7948094,10.973762 12.4869454,10.376697 Z M19.1764914,5.81204242 L19.1173435,5.8866169 C17.7520172,7.57149183 16.0153164,8.88116891 13.9123936,9.81844816 C14.2392129,10.4595996 14.542306,11.1091724 14.8216603,11.7671308 C16.9563431,11.2959164 19.1764114,11.4102097 21.4738246,12.1155598 L21.4757506,12 L21.4757506,12 C21.4757506,9.63493612 20.6092918,7.47224453 19.1764914,5.81204242 Z M7.72,3.542 C5.19871241,4.82172848 3.32530696,7.19609873 2.72719161,10.0400399 C6.2412066,10.1766127 9.24269003,9.8349227 11.7414737,9.02000099 C10.66281,7.16687166 9.36598757,5.38950978 7.85094336,3.68623299 L7.72,3.542 Z M12,2.52424942 C11.0334116,2.52424942 10.1006257,2.668975 9.22212971,2.93793875 C10.7642186,4.70399745 12.0855915,6.54895167 13.1858216,8.47210607 C15.2026268,7.59005822 16.8340041,6.34337177 18.0847839,4.73553647 C16.43888,3.3555005 14.3165145,2.52424942 12,2.52424942 Z M7.614,3.424 L7.72,3.542 L7.72141639,3.5429207 L7.614,3.424 Z" id="Combined-Shape" fill="#071013"></path>
    </g>
</svg>